<svg width="357" height="357" viewBox="0 0 357 357" fill="none" xmlns="http://www.w3.org/2000/svg">
<g clip-path="url(#clip0_57_335)">
<path d="M357 0H0V357H357V0Z" fill="white"/>
<path d="M148 4H136V16H148V4Z" fill="black"/>
<path d="M160 4H148V16H160V4Z" fill="black"/>
<path d="M172 4H160V16H172V4Z" fill="black"/>
<path d="M184 4H172V16H184V4Z" fill="black"/>
<path d="M196 4H184V16H196V4Z" fill="black"/>
<path d="M232 4H220V16H232V4Z" fill="black"/>
<path d="M244 4H232V16H244V4Z" fill="black"/>
<path d="M256 4H244V16H256V4Z" fill="black"/>
<path d="M124 16H112V28H124V16Z" fill="black"/>
<path d="M148 16H136V28H148V16Z" fill="black"/>
<path d="M172 16H160V28H172V16Z" fill="black"/>
<path d="M184 16H172V28H184V16Z" fill="black"/>
<path d="M196 16H184V28H196V16Z" fill="black"/>
<path d="M208 16H196V28H208V16Z" fill="black"/>
<path d="M220 16H208V28H220V16Z" fill="black"/>
<path d="M244 16H232V28H244V16Z" fill="black"/>
<path d="M112 28H100V40H112V28Z" fill="black"/>
<path d="M160 28H148V40H160V28Z" fill="black"/>
<path d="M172 28H160V40H172V28Z" fill="black"/>
<path d="M196 28H184V40H196V28Z" fill="black"/>
<path d="M232 28H220V40H232V28Z" fill="black"/>
<path d="M244 28H232V40H244V28Z" fill="black"/>
<path d="M112 40H100V52H112V40Z" fill="black"/>
<path d="M124 40H112V52H124V40Z" fill="black"/>
<path d="M148 40H136V52H148V40Z" fill="black"/>
<path d="M184 40H172V52H184V40Z" fill="black"/>
<path d="M196 40H184V52H196V40Z" fill="black"/>
<path d="M220 40H208V52H220V40Z" fill="black"/>
<path d="M232 40H220V52H232V40Z" fill="black"/>
<path d="M112 52H100V64H112V52Z" fill="black"/>
<path d="M124 52H112V64H124V52Z" fill="black"/>
<path d="M196 52H184V64H196V52Z" fill="black"/>
<path d="M208 52H196V64H208V52Z" fill="black"/>
<path d="M244 52H232V64H244V52Z" fill="black"/>
<path d="M112 64H100V76H112V64Z" fill="black"/>
<path d="M124 64H112V76H124V64Z" fill="black"/>
<path d="M136 64H124V76H136V64Z" fill="black"/>
<path d="M160 64H148V76H160V64Z" fill="black"/>
<path d="M220 64H208V76H220V64Z" fill="black"/>
<path d="M256 64H244V76H256V64Z" fill="black"/>
<path d="M112 76H100V88H112V76Z" fill="black"/>
<path d="M136 76H124V88H136V76Z" fill="black"/>
<path d="M160 76H148V88H160V76Z" fill="black"/>
<path d="M184 76H172V88H184V76Z" fill="black"/>
<path d="M208 76H196V88H208V76Z" fill="black"/>
<path d="M232 76H220V88H232V76Z" fill="black"/>
<path d="M256 76H244V88H256V76Z" fill="black"/>
<path d="M112 88H100V100H112V88Z" fill="black"/>
<path d="M136 88H124V100H136V88Z" fill="black"/>
<path d="M160 88H148V100H160V88Z" fill="black"/>
<path d="M184 88H172V100H184V88Z" fill="black"/>
<path d="M208 88H196V100H208V88Z" fill="black"/>
<path d="M220 88H208V100H220V88Z" fill="black"/>
<path d="M232 88H220V100H232V88Z" fill="black"/>
<path d="M244 88H232V100H244V88Z" fill="black"/>
<path d="M256 88H244V100H256V88Z" fill="black"/>
<path d="M16 100H4V112H16V100Z" fill="black"/>
<path d="M40 100H28V112H40V100Z" fill="black"/>
<path d="M52 100H40V112H52V100Z" fill="black"/>
<path d="M64 100H52V112H64V100Z" fill="black"/>
<path d="M76 100H64V112H76V100Z" fill="black"/>
<path d="M88 100H76V112H88V100Z" fill="black"/>
<path d="M124 100H112V112H124V100Z" fill="black"/>
<path d="M136 100H124V112H136V100Z" fill="black"/>
<path d="M148 100H136V112H148V100Z" fill="black"/>
<path d="M160 100H148V112H160V100Z" fill="black"/>
<path d="M208 100H196V112H208V100Z" fill="black"/>
<path d="M220 100H208V112H220V100Z" fill="black"/>
<path d="M256 100H244V112H256V100Z" fill="black"/>
<path d="M280 100H268V112H280V100Z" fill="black"/>
<path d="M292 100H280V112H292V100Z" fill="black"/>
<path d="M304 100H292V112H304V100Z" fill="black"/>
<path d="M316 100H304V112H316V100Z" fill="black"/>
<path d="M328 100H316V112H328V100Z" fill="black"/>
<path d="M16 112H4V124H16V112Z" fill="black"/>
<path d="M28 112H16V124H28V112Z" fill="black"/>
<path d="M40 112H28V124H40V112Z" fill="black"/>
<path d="M64 112H52V124H64V112Z" fill="black"/>
<path d="M124 112H112V124H124V112Z" fill="black"/>
<path d="M136 112H124V124H136V112Z" fill="black"/>
<path d="M148 112H136V124H148V112Z" fill="black"/>
<path d="M160 112H148V124H160V112Z" fill="black"/>
<path d="M172 112H160V124H172V112Z" fill="black"/>
<path d="M184 112H172V124H184V112Z" fill="black"/>
<path d="M196 112H184V124H196V112Z" fill="black"/>
<path d="M256 112H244V124H256V112Z" fill="black"/>
<path d="M280 112H268V124H280V112Z" fill="black"/>
<path d="M304 112H292V124H304V112Z" fill="black"/>
<path d="M316 112H304V124H316V112Z" fill="black"/>
<path d="M340 112H328V124H340V112Z" fill="black"/>
<path d="M40 124H28V136H40V124Z" fill="black"/>
<path d="M52 124H40V136H52V124Z" fill="black"/>
<path d="M76 124H64V136H76V124Z" fill="black"/>
<path d="M88 124H76V136H88V124Z" fill="black"/>
<path d="M112 124H100V136H112V124Z" fill="black"/>
<path d="M136 124H124V136H136V124Z" fill="black"/>
<path d="M148 124H136V136H148V124Z" fill="black"/>
<path d="M172 124H160V136H172V124Z" fill="black"/>
<path d="M184 124H172V136H184V124Z" fill="black"/>
<path d="M196 124H184V136H196V124Z" fill="black"/>
<path d="M208 124H196V136H208V124Z" fill="black"/>
<path d="M220 124H208V136H220V124Z" fill="black"/>
<path d="M292 124H280V136H292V124Z" fill="black"/>
<path d="M316 124H304V136H316V124Z" fill="black"/>
<path d="M328 124H316V136H328V124Z" fill="black"/>
<path d="M16 136H4V148H16V136Z" fill="black"/>
<path d="M28 136H16V148H28V136Z" fill="black"/>
<path d="M100 136H88V148H100V136Z" fill="black"/>
<path d="M124 136H112V148H124V136Z" fill="black"/>
<path d="M148 136H136V148H148V136Z" fill="black"/>
<path d="M172 136H160V148H172V136Z" fill="black"/>
<path d="M196 136H184V148H196V136Z" fill="black"/>
<path d="M220 136H208V148H220V136Z" fill="black"/>
<path d="M232 136H220V148H232V136Z" fill="black"/>
<path d="M244 136H232V148H244V136Z" fill="black"/>
<path d="M256 136H244V148H256V136Z" fill="black"/>
<path d="M268 136H256V148H268V136Z" fill="black"/>
<path d="M280 136H268V148H280V136Z" fill="black"/>
<path d="M292 136H280V148H292V136Z" fill="black"/>
<path d="M304 136H292V148H304V136Z" fill="black"/>
<path d="M316 136H304V148H316V136Z" fill="black"/>
<path d="M352 136H340V148H352V136Z" fill="black"/>
<path d="M40 148H28V160H40V148Z" fill="black"/>
<path d="M88 148H76V160H88V148Z" fill="black"/>
<path d="M112 148H100V160H112V148Z" fill="black"/>
<path d="M148 148H136V160H148V148Z" fill="black"/>
<path d="M184 148H172V160H184V148Z" fill="black"/>
<path d="M196 148H184V160H196V148Z" fill="black"/>
<path d="M268 148H256V160H268V148Z" fill="black"/>
<path d="M280 148H268V160H280V148Z" fill="black"/>
<path d="M16 160H4V172H16V160Z" fill="black"/>
<path d="M52 160H40V172H52V160Z" fill="black"/>
<path d="M64 160H52V172H64V160Z" fill="black"/>
<path d="M76 160H64V172H76V160Z" fill="black"/>
<path d="M100 160H88V172H100V160Z" fill="black"/>
<path d="M148 160H136V172H148V160Z" fill="black"/>
<path d="M196 160H184V172H196V160Z" fill="black"/>
<path d="M208 160H196V172H208V160Z" fill="black"/>
<path d="M244 160H232V172H244V160Z" fill="black"/>
<path d="M256 160H244V172H256V160Z" fill="black"/>
<path d="M292 160H280V172H292V160Z" fill="black"/>
<path d="M316 160H304V172H316V160Z" fill="black"/>
<path d="M340 160H328V172H340V160Z" fill="black"/>
<path d="M16 172H4V184H16V172Z" fill="black"/>
<path d="M40 172H28V184H40V172Z" fill="black"/>
<path d="M52 172H40V184H52V172Z" fill="black"/>
<path d="M88 172H76V184H88V172Z" fill="black"/>
<path d="M100 172H88V184H100V172Z" fill="black"/>
<path d="M124 172H112V184H124V172Z" fill="black"/>
<path d="M136 172H124V184H136V172Z" fill="black"/>
<path d="M220 172H208V184H220V172Z" fill="black"/>
<path d="M232 172H220V184H232V172Z" fill="black"/>
<path d="M256 172H244V184H256V172Z" fill="black"/>
<path d="M316 172H304V184H316V172Z" fill="black"/>
<path d="M328 172H316V184H328V172Z" fill="black"/>
<path d="M340 172H328V184H340V172Z" fill="black"/>
<path d="M352 172H340V184H352V172Z" fill="black"/>
<path d="M16 184H4V196H16V184Z" fill="black"/>
<path d="M40 184H28V196H40V184Z" fill="black"/>
<path d="M52 184H40V196H52V184Z" fill="black"/>
<path d="M76 184H64V196H76V184Z" fill="black"/>
<path d="M100 184H88V196H100V184Z" fill="black"/>
<path d="M124 184H112V196H124V184Z" fill="black"/>
<path d="M160 184H148V196H160V184Z" fill="black"/>
<path d="M184 184H172V196H184V184Z" fill="black"/>
<path d="M208 184H196V196H208V184Z" fill="black"/>
<path d="M220 184H208V196H220V184Z" fill="black"/>
<path d="M232 184H220V196H232V184Z" fill="black"/>
<path d="M244 184H232V196H244V184Z" fill="black"/>
<path d="M256 184H244V196H256V184Z" fill="black"/>
<path d="M280 184H268V196H280V184Z" fill="black"/>
<path d="M304 184H292V196H304V184Z" fill="black"/>
<path d="M340 184H328V196H340V184Z" fill="black"/>
<path d="M352 184H340V196H352V184Z" fill="black"/>
<path d="M16 196H4V208H16V196Z" fill="black"/>
<path d="M28 196H16V208H28V196Z" fill="black"/>
<path d="M52 196H40V208H52V196Z" fill="black"/>
<path d="M64 196H52V208H64V196Z" fill="black"/>
<path d="M88 196H76V208H88V196Z" fill="black"/>
<path d="M136 196H124V208H136V196Z" fill="black"/>
<path d="M160 196H148V208H160V196Z" fill="black"/>
<path d="M220 196H208V208H220V196Z" fill="black"/>
<path d="M256 196H244V208H256V196Z" fill="black"/>
<path d="M292 196H280V208H292V196Z" fill="black"/>
<path d="M304 196H292V208H304V196Z" fill="black"/>
<path d="M16 208H4V220H16V208Z" fill="black"/>
<path d="M28 208H16V220H28V208Z" fill="black"/>
<path d="M40 208H28V220H40V208Z" fill="black"/>
<path d="M76 208H64V220H76V208Z" fill="black"/>
<path d="M112 208H100V220H112V208Z" fill="black"/>
<path d="M124 208H112V220H124V208Z" fill="black"/>
<path d="M136 208H124V220H136V208Z" fill="black"/>
<path d="M148 208H136V220H148V208Z" fill="black"/>
<path d="M160 208H148V220H160V208Z" fill="black"/>
<path d="M172 208H160V220H172V208Z" fill="black"/>
<path d="M184 208H172V220H184V208Z" fill="black"/>
<path d="M196 208H184V220H196V208Z" fill="black"/>
<path d="M268 208H256V220H268V208Z" fill="black"/>
<path d="M292 208H280V220H292V208Z" fill="black"/>
<path d="M316 208H304V220H316V208Z" fill="black"/>
<path d="M340 208H328V220H340V208Z" fill="black"/>
<path d="M352 208H340V220H352V208Z" fill="black"/>
<path d="M16 220H4V232H16V220Z" fill="black"/>
<path d="M64 220H52V232H64V220Z" fill="black"/>
<path d="M76 220H64V232H76V220Z" fill="black"/>
<path d="M88 220H76V232H88V220Z" fill="black"/>
<path d="M100 220H88V232H100V220Z" fill="black"/>
<path d="M112 220H100V232H112V220Z" fill="black"/>
<path d="M136 220H124V232H136V220Z" fill="black"/>
<path d="M160 220H148V232H160V220Z" fill="black"/>
<path d="M172 220H160V232H172V220Z" fill="black"/>
<path d="M184 220H172V232H184V220Z" fill="black"/>
<path d="M196 220H184V232H196V220Z" fill="black"/>
<path d="M220 220H208V232H220V220Z" fill="black"/>
<path d="M232 220H220V232H232V220Z" fill="black"/>
<path d="M316 220H304V232H316V220Z" fill="black"/>
<path d="M328 220H316V232H328V220Z" fill="black"/>
<path d="M352 220H340V232H352V220Z" fill="black"/>
<path d="M16 232H4V244H16V232Z" fill="black"/>
<path d="M64 232H52V244H64V232Z" fill="black"/>
<path d="M100 232H88V244H100V232Z" fill="black"/>
<path d="M136 232H124V244H136V232Z" fill="black"/>
<path d="M148 232H136V244H148V232Z" fill="black"/>
<path d="M172 232H160V244H172V232Z" fill="black"/>
<path d="M196 232H184V244H196V232Z" fill="black"/>
<path d="M244 232H232V244H244V232Z" fill="black"/>
<path d="M256 232H244V244H256V232Z" fill="black"/>
<path d="M268 232H256V244H268V232Z" fill="black"/>
<path d="M280 232H268V244H280V232Z" fill="black"/>
<path d="M292 232H280V244H292V232Z" fill="black"/>
<path d="M304 232H292V244H304V232Z" fill="black"/>
<path d="M16 244H4V256H16V244Z" fill="black"/>
<path d="M40 244H28V256H40V244Z" fill="black"/>
<path d="M52 244H40V256H52V244Z" fill="black"/>
<path d="M64 244H52V256H64V244Z" fill="black"/>
<path d="M88 244H76V256H88V244Z" fill="black"/>
<path d="M100 244H88V256H100V244Z" fill="black"/>
<path d="M112 244H100V256H112V244Z" fill="black"/>
<path d="M124 244H112V256H124V244Z" fill="black"/>
<path d="M160 244H148V256H160V244Z" fill="black"/>
<path d="M184 244H172V256H184V244Z" fill="black"/>
<path d="M196 244H184V256H196V244Z" fill="black"/>
<path d="M208 244H196V256H208V244Z" fill="black"/>
<path d="M232 244H220V256H232V244Z" fill="black"/>
<path d="M256 244H244V256H256V244Z" fill="black"/>
<path d="M268 244H256V256H268V244Z" fill="black"/>
<path d="M280 244H268V256H280V244Z" fill="black"/>
<path d="M292 244H280V256H292V244Z" fill="black"/>
<path d="M304 244H292V256H304V244Z" fill="black"/>
<path d="M316 244H304V256H316V244Z" fill="black"/>
<path d="M328 244H316V256H328V244Z" fill="black"/>
<path d="M340 244H328V256H340V244Z" fill="black"/>
<path d="M112 256H100V268H112V256Z" fill="black"/>
<path d="M160 256H148V268H160V256Z" fill="black"/>
<path d="M196 256H184V268H196V256Z" fill="black"/>
<path d="M256 256H244V268H256V256Z" fill="black"/>
<path d="M304 256H292V268H304V256Z" fill="black"/>
<path d="M340 256H328V268H340V256Z" fill="black"/>
<path d="M124 268H112V280H124V268Z" fill="black"/>
<path d="M160 268H148V280H160V268Z" fill="black"/>
<path d="M220 268H208V280H220V268Z" fill="black"/>
<path d="M244 268H232V280H244V268Z" fill="black"/>
<path d="M256 268H244V280H256V268Z" fill="black"/>
<path d="M280 268H268V280H280V268Z" fill="black"/>
<path d="M304 268H292V280H304V268Z" fill="black"/>
<path d="M316 268H304V280H316V268Z" fill="black"/>
<path d="M328 268H316V280H328V268Z" fill="black"/>
<path d="M112 280H100V292H112V280Z" fill="black"/>
<path d="M136 280H124V292H136V280Z" fill="black"/>
<path d="M160 280H148V292H160V280Z" fill="black"/>
<path d="M184 280H172V292H184V280Z" fill="black"/>
<path d="M196 280H184V292H196V280Z" fill="black"/>
<path d="M208 280H196V292H208V280Z" fill="black"/>
<path d="M244 280H232V292H244V280Z" fill="black"/>
<path d="M256 280H244V292H256V280Z" fill="black"/>
<path d="M304 280H292V292H304V280Z" fill="black"/>
<path d="M328 280H316V292H328V280Z" fill="black"/>
<path d="M340 280H328V292H340V280Z" fill="black"/>
<path d="M352 280H340V292H352V280Z" fill="black"/>
<path d="M112 292H100V304H112V292Z" fill="black"/>
<path d="M124 292H112V304H124V292Z" fill="black"/>
<path d="M136 292H124V304H136V292Z" fill="black"/>
<path d="M160 292H148V304H160V292Z" fill="black"/>
<path d="M196 292H184V304H196V292Z" fill="black"/>
<path d="M232 292H220V304H232V292Z" fill="black"/>
<path d="M244 292H232V304H244V292Z" fill="black"/>
<path d="M256 292H244V304H256V292Z" fill="black"/>
<path d="M268 292H256V304H268V292Z" fill="black"/>
<path d="M280 292H268V304H280V292Z" fill="black"/>
<path d="M292 292H280V304H292V292Z" fill="black"/>
<path d="M304 292H292V304H304V292Z" fill="black"/>
<path d="M328 292H316V304H328V292Z" fill="black"/>
<path d="M340 292H328V304H340V292Z" fill="black"/>
<path d="M352 292H340V304H352V292Z" fill="black"/>
<path d="M112 304H100V316H112V304Z" fill="black"/>
<path d="M184 304H172V316H184V304Z" fill="black"/>
<path d="M196 304H184V316H196V304Z" fill="black"/>
<path d="M256 304H244V316H256V304Z" fill="black"/>
<path d="M292 304H280V316H292V304Z" fill="black"/>
<path d="M112 316H100V328H112V316Z" fill="black"/>
<path d="M148 316H136V328H148V316Z" fill="black"/>
<path d="M160 316H148V328H160V316Z" fill="black"/>
<path d="M172 316H160V328H172V316Z" fill="black"/>
<path d="M208 316H196V328H208V316Z" fill="black"/>
<path d="M244 316H232V328H244V316Z" fill="black"/>
<path d="M292 316H280V328H292V316Z" fill="black"/>
<path d="M328 316H316V328H328V316Z" fill="black"/>
<path d="M340 316H328V328H340V316Z" fill="black"/>
<path d="M124 328H112V340H124V328Z" fill="black"/>
<path d="M160 328H148V340H160V328Z" fill="black"/>
<path d="M196 328H184V340H196V328Z" fill="black"/>
<path d="M208 328H196V340H208V328Z" fill="black"/>
<path d="M220 328H208V340H220V328Z" fill="black"/>
<path d="M232 328H220V340H232V328Z" fill="black"/>
<path d="M256 328H244V340H256V328Z" fill="black"/>
<path d="M268 328H256V340H268V328Z" fill="black"/>
<path d="M316 328H304V340H316V328Z" fill="black"/>
<path d="M328 328H316V340H328V328Z" fill="black"/>
<path d="M352 328H340V340H352V328Z" fill="black"/>
<path d="M112 340H100V352H112V340Z" fill="black"/>
<path d="M124 340H112V352H124V340Z" fill="black"/>
<path d="M136 340H124V352H136V340Z" fill="black"/>
<path d="M160 340H148V352H160V340Z" fill="black"/>
<path d="M184 340H172V352H184V340Z" fill="black"/>
<path d="M196 340H184V352H196V340Z" fill="black"/>
<path d="M208 340H196V352H208V340Z" fill="black"/>
<path d="M220 340H208V352H220V340Z" fill="black"/>
<path d="M244 340H232V352H244V340Z" fill="black"/>
<path d="M256 340H244V352H256V340Z" fill="black"/>
<path d="M268 340H256V352H268V340Z" fill="black"/>
<path d="M280 340H268V352H280V340Z" fill="black"/>
<path d="M304 340H292V352H304V340Z" fill="black"/>
<path d="M316 340H304V352H316V340Z" fill="black"/>
<path d="M328 340H316V352H328V340Z" fill="black"/>
<path d="M88 4H4V88H88V4Z" fill="black"/>
<path d="M76 16H16V76H76V16Z" fill="white"/>
<path d="M64 28H28V64H64V28Z" fill="black"/>
<path d="M352 4H268V88H352V4Z" fill="black"/>
<path d="M340 16H280V76H340V16Z" fill="white"/>
<path d="M328 28H292V64H328V28Z" fill="black"/>
<path d="M88 268H4V352H88V268Z" fill="black"/>
<path d="M76 280H16V340H76V280Z" fill="white"/>
<path d="M64 292H28V328H64V292Z" fill="black"/>
</g>
<defs>
<clipPath id="clip0_57_335">
<rect width="357" height="357" fill="white"/>
</clipPath>
</defs>
</svg>
